<svg xmlns="http://www.w3.org/2000/svg" version="1.1" xmlns:xlink="http://www.w3.org/1999/xlink" xmlns:svgjs="http://svgjs.dev/svgjs" width="2000" height="1252" viewBox="0 0 2000 1252"><g transform="matrix(1,0,0,1,-1.2121212121212466,231.81166959921802)"><svg viewBox="0 0 396 248" data-background-color="#ffffff" preserveAspectRatio="xMidYMid meet" height="1252" width="2000" xmlns="http://www.w3.org/2000/svg" xmlns:xlink="http://www.w3.org/1999/xlink"><g id="tight-bounds" transform="matrix(1,0,0,1,0.2400000000000091,0.4000000000000057)"><svg viewBox="0 0 395.52 247.2" height="247.2" width="395.52"><g><svg></svg></g><g><svg viewBox="0 0 395.52 247.2" height="247.2" width="395.52"><g transform="matrix(1,0,0,1,75.54432,55.098978461538465)"><svg viewBox="0 0 244.43135999999998 137.00204307692306" height="137.00204307692306" width="244.43135999999998"><g><svg viewBox="0 0 244.43135999999998 137.00204307692306" height="137.00204307692306" width="244.43135999999998"><g><svg viewBox="0 0 244.43135999999998 137.00204307692306" height="137.00204307692306" width="244.43135999999998"><g><svg viewBox="0 0 244.43135999999998 137.00204307692306" height="137.00204307692306" width="244.43135999999998"><g id="textblocktransform"><svg viewBox="0 0 244.43135999999998 137.00204307692306" height="137.00204307692306" width="244.43135999999998" id="textblock"><g><svg viewBox="0 0 244.43135999999998 137.00204307692306" height="137.00204307692306" width="244.43135999999998"><g transform="matrix(1,0,0,1,0,0)"><svg width="244.43135999999998" viewBox="2.76 -36.65 65.38 36.65" height="137.00204307692306" data-palette-color="#915eff"><path d="M2.76-35.01L2.76-36.01 17.9-36.01Q21.73-36.01 24.9-34.85 28.08-33.69 30.41-31.47 32.74-29.25 34.05-25.79 35.35-22.34 35.35-17.94L35.35-17.94Q35.35-12.67 33.13-8.58 30.91-4.49 26.93-2.25 22.95 0 17.85 0L17.85 0 2.76 0 2.76-1 7.25-2.76 7.25-33.25 2.76-35.01ZM17.55-33.4L17.55-33.4 12.01-33.4 12.01-2.59 17.7-2.59Q20.17-2.59 22.4-3.54 24.63-4.49 26.38-6.3 28.13-8.11 29.16-10.99 30.2-13.87 30.2-17.46L30.2-17.46Q30.2-25.15 26.9-29.27 23.61-33.4 17.55-33.4ZM38.08-25.9L38.08-36.01 38.84-36.65 43.48-36.01 62.74-36.01 67.38-36.65 68.14-36.01 68.14-25.9 67.14-25.9 64.08-33.35 55.59-33.69 55.59-2.76 60.08-1 60.08 0 46.85 0 46.85-1 51.1-2.76 51.1-33.69 42.28-33.3 39.08-25.9 38.08-25.9Z" opacity="1" transform="matrix(1,0,0,1,0,0)" fill="#915eff" class="wordmark-text-0" data-fill-palette-color="primary" id="text-0"></path></svg></g></svg></g></svg></g></svg></g><g></g></svg></g></svg></g></svg></g><g><path d="M128.715 22.756A122.216 122.216 0 0 1 266.805 22.756L254.45 22.756A109.861 109.861 0 0 0 141.07 22.756L128.715 22.756M128.715 224.444A122.216 122.216 0 0 0 266.805 224.444L254.45 224.444A109.861 109.861 0 0 1 141.07 224.444L128.715 224.444" fill="#915eff" stroke="transparent" data-fill-palette-color="tertiary"></path></g></svg></g><defs></defs></svg><rect width="395.52" height="247.2" fill="none" stroke="none" visibility="hidden"></rect></g></svg></g></svg>